# xmcd CD database file
#
# Track frame offsets:
#	150
#	13509
#	26396
#	39725
#	53856
#	66704
#	78686
#	91502
#	105012
#	118771
#	131460
#	143034
#	154098
#	165793
#	180364
#	193628
#	206015
#	220178
#	233149
#
# Disc length: 3281 seconds
#
# Revision: 0
# Processed by: cddbd v1.4PL0 Copyright (c) Steve Scherf et al.
# Submitted via: CDex 1.50
#
DISCID=f20ccf13
DTITLE=Illinois Jacquet - Jumpin' Jacquet
DYEAR=1947
DGENRE=Jazz
TTITLE0=Jumpin' Jacquet
TTITLE1=Blues Mood
TTITLE2=Jacquet In The Box
TTITLE3=Don't Blame Me
TTITLE4=Jacquet And No Vest
TTITLE5=Jacqeut's Blues
TTITLE6=Jacquet And Coat
TTITLE7=Doggin' With Doggett
TTITLE8=You Left Me All Alone
TTITLE9=Blow, Illinois, Blow
TTITLE10=Illinois Blows The Blues
TTITLE11=Goofin' Off
TTITLE12=It's Wild
TTITLE13=Don't Push Daddy
TTITLE14=Riffin' With Jacquet
TTITLE15=Sahara Heat
TTITLE16=I Surrender Dear
TTITLE17=Destination Moon
TTITLE18=For Truly
EXTD=YEAR: 1947
EXTT0=
EXTT1=
EXTT2=
EXTT3=
EXTT4=
EXTT5=
EXTT6=
EXTT7=
EXTT8=
EXTT9=
EXTT10=
EXTT11=
EXTT12=
EXTT13=
EXTT14=
EXTT15=
EXTT16=
EXTT17=
EXTT18=
PLAYORDER=
